<svg width="54" height="54" viewBox="0 0 54 54" fill="none" xmlns="http://www.w3.org/2000/svg">
<g clip-path="url(#clip0)">
<path d="M48.5944 46.318C56.5562 37.1347 55.5791 23.2861 46.5964 15.2487C51.2103 31.4164 39.0101 47.5664 22.2012 47.5664C21.8776 47.5664 23.8305 47.5778 16.1384 47.5303C20.3455 51.7177 25.9488 54 31.7984 54C31.8136 54 52.4119 53.8946 52.424 53.8945C53.8302 53.8878 54.5307 52.1764 53.5276 51.1864L48.5944 46.318Z" fill="white"/>
<path d="M22.201 44.4023C34.4421 44.4023 44.401 34.4429 44.401 22.2012C44.401 9.95941 34.4422 0 22.201 0C9.95972 0 0.00104231 9.95941 0.00104231 22.2012C0.00104231 27.5905 1.90876 32.6876 5.40495 36.7203L0.471749 41.5888C-0.528094 42.5756 0.164519 44.29 1.57548 44.2969C1.58634 44.297 22.1902 44.4023 22.201 44.4023ZM12.762 14.3438H31.7453C32.619 14.3438 33.3273 15.0521 33.3273 15.9258C33.3273 16.7995 32.619 17.5078 31.7453 17.5078H12.762C11.8883 17.5078 11.1801 16.7995 11.1801 15.9258C11.1801 15.0521 11.8884 14.3438 12.762 14.3438ZM12.762 20.6719H31.7453C32.619 20.6719 33.3273 21.3802 33.3273 22.2539C33.3273 23.1276 32.619 23.8359 31.7453 23.8359H12.762C11.8883 23.8359 11.1801 23.1276 11.1801 22.2539C11.1801 21.3802 11.8884 20.6719 12.762 20.6719ZM11.1801 28.582C11.1801 27.7083 11.8883 27 12.762 27H31.7453C32.619 27 33.3273 27.7083 33.3273 28.582C33.3273 29.4557 32.619 30.1641 31.7453 30.1641H12.762C11.8884 30.1641 11.1801 29.4557 11.1801 28.582Z" fill="white"/>
</g>
<defs>
<clipPath id="clip0">
<rect width="54" height="54" fill="white"/>
</clipPath>
</defs>
</svg>
