<svg width="54" height="54" viewBox="0 0 54 54" fill="none" xmlns="http://www.w3.org/2000/svg">
<g clip-path="url(#clip0)">
<path d="M4.9043 45.7734V4.74609C4.9043 3.87376 5.614 3.16406 6.48633 3.16406H26.8513C28.1142 3.16406 29.3465 3.67991 30.2332 4.57924L36.6511 11.2163C36.6542 11.2194 36.6572 11.2226 36.6602 11.2257C37.538 12.1187 38.0215 13.3001 38.0215 14.5527V28.9979C31.845 29.7782 27.0527 35.0646 27.0527 41.4493C27.0527 43.5833 27.5887 45.5942 28.5321 47.3556H6.48633C5.614 47.3555 4.9043 46.6458 4.9043 45.7734Z" fill="white"/>
<path fill-rule="evenodd" clip-rule="evenodd" d="M41.1855 28.9963V14.5526C41.1855 12.4675 40.3816 10.5004 38.9217 9.01262L32.5026 2.37452L32.4933 2.36493C31.0154 0.861996 28.9589 0 26.8513 0H6.48633C3.86933 0 1.74023 2.1291 1.74023 4.74609V45.7734C1.74023 48.3904 3.86933 50.5195 6.48633 50.5195H30.9375H34.5C30.9627 47.7352 30.1706 43.3125 30.2168 41.4492C30.2168 36.2733 34.4276 32.0625 39.6035 32.0625H41.1855V28.9963ZM4.9043 4.74609V45.7734C4.9043 46.6458 5.614 47.3555 6.48633 47.3556H28.5321C27.5887 45.5942 27.0527 43.5833 27.0527 41.4493C27.0527 35.0646 31.845 29.7782 38.0215 28.9979V14.5527C38.0215 13.3001 37.538 12.1187 36.6602 11.2257L36.6511 11.2163L30.2332 4.57924C29.3465 3.67991 28.1142 3.16406 26.8513 3.16406H6.48633C5.614 3.16406 4.9043 3.87376 4.9043 4.74609Z" fill="white"/>
<path d="M43.253 37.7027C42.5819 37.1436 41.5843 37.2342 41.0249 37.9053L38.3547 41.1096L37.749 39.8982C37.3583 39.1167 36.408 38.7997 35.6265 39.1907C34.8449 39.5813 34.5282 40.5317 34.919 41.3131L36.6065 44.6882C36.8453 45.1657 37.3088 45.4906 37.8391 45.5522C37.9002 45.5591 37.961 45.5627 38.0217 45.5627C38.4879 45.5627 38.9344 45.3564 39.2369 44.9935L43.4556 39.931C44.0149 39.2596 43.9242 38.262 43.253 37.7027Z" fill="white"/>
<path d="M26.9473 18.457H28.6348C29.5085 18.457 30.2168 17.7487 30.2168 16.875C30.2168 16.0013 29.5085 15.293 28.6348 15.293H26.9473C26.0736 15.293 25.3652 16.0013 25.3652 16.875C25.3652 17.7487 26.0736 18.457 26.9473 18.457Z" fill="#455684"/>
<path d="M30.2168 25.3125C30.2168 24.4388 29.5085 23.7305 28.6348 23.7305H26.9473C26.0736 23.7305 25.3652 24.4388 25.3652 25.3125C25.3652 26.1862 26.0736 26.8945 26.9473 26.8945H28.6348C29.5085 26.8945 30.2168 26.1862 30.2168 25.3125Z" fill="#455684"/>
<path d="M18.5098 15.293H10.0723C9.19856 15.293 8.49023 16.0013 8.49023 16.875C8.49023 17.7487 9.19856 18.457 10.0723 18.457H18.5098C19.3835 18.457 20.0918 17.7487 20.0918 16.875C20.0918 16.0013 19.3835 15.293 18.5098 15.293Z" fill="#455684"/>
<path d="M18.5098 23.7305H10.0723C9.19856 23.7305 8.49023 24.4388 8.49023 25.3125C8.49023 26.1862 9.19856 26.8945 10.0723 26.8945H18.5098C19.3835 26.8945 20.0918 26.1862 20.0918 25.3125C20.0918 24.4388 19.3835 23.7305 18.5098 23.7305Z" fill="#455684"/>
<path d="M18.5098 32.168H10.0723C9.19856 32.168 8.49023 32.8763 8.49023 33.75C8.49023 34.6237 9.19856 35.332 10.0723 35.332H18.5098C19.3835 35.332 20.0918 34.6237 20.0918 33.75C20.0918 32.8763 19.3835 32.168 18.5098 32.168Z" fill="#455684"/>
</g>
<defs>
<clipPath id="clip0">
<rect width="54" height="54" fill="white"/>
</clipPath>
</defs>
</svg>
