<svg width="54" height="54" viewBox="0 0 54 54" fill="none" xmlns="http://www.w3.org/2000/svg">
<path fill-rule="evenodd" clip-rule="evenodd" d="M9.125 6C8.2962 6 7.50134 6.32924 6.91529 6.91529C6.32924 7.50134 6 8.2962 6 9.125V23.4563C6.00018 24.285 6.32953 25.0797 6.91563 25.6656L28.7906 47.5406C29.3767 48.1265 30.1714 48.4556 31 48.4556C31.8286 48.4556 32.6234 48.1265 33.2094 47.5406L47.5406 33.2094C48.1265 32.6234 48.4556 31.8286 48.4556 31C48.4556 30.1714 48.1265 29.3767 47.5406 28.7906L25.6656 6.91563C25.0797 6.32953 24.285 6.00018 23.4563 6H9.125ZM21.625 16.9375C21.625 18.1807 21.1311 19.373 20.2521 20.2521C19.373 21.1311 18.1807 21.625 16.9375 21.625C15.6943 21.625 14.502 21.1311 13.6229 20.2521C12.7439 19.373 12.25 18.1807 12.25 16.9375C12.25 15.6943 12.7439 14.502 13.6229 13.6229C14.502 12.7439 15.6943 12.25 16.9375 12.25C18.1807 12.25 19.373 12.7439 20.2521 13.6229C21.1311 14.502 21.625 15.6943 21.625 16.9375Z" fill="white"/>
</svg>
