<svg width="81" height="25" viewBox="0 0 81 25" fill="none" xmlns="http://www.w3.org/2000/svg">
<path d="M17.5553 16.0595H13.6229L12.6574 18.3826H10.3489L15.6945 6.06299H15.7998L21.1278 18.3826H18.4331L17.5553 16.0595ZM16.7741 14.0795L15.633 11.1932L14.4393 14.0795H16.7741Z" fill="#BDBDBD"/>
<path d="M28.15 8.51824C27.7299 8.48736 27.3104 8.58559 26.9474 8.79984C26.7998 8.90732 26.6825 9.05143 26.6071 9.21803C26.5317 9.38463 26.5007 9.56801 26.5173 9.75021C26.5278 9.95436 26.5907 10.1523 26.6999 10.325C26.8091 10.4976 26.9608 10.6391 27.1405 10.7358C27.6545 11.0763 28.2089 11.3512 28.7907 11.5541C29.2958 11.733 29.7788 11.9692 30.2303 12.2581C30.6386 12.5398 30.9753 12.9135 31.2134 13.3493C31.4922 13.8924 31.6253 14.4989 31.5996 15.1092C31.6038 15.7288 31.4297 16.3365 31.0981 16.8594C30.7664 17.3823 30.2914 17.7981 29.7299 18.0571C29.0486 18.3833 28.2989 18.5402 27.5443 18.5147C26.836 18.5154 26.1317 18.4086 25.4552 18.1979C24.7564 17.9948 24.0973 17.6734 23.5066 17.2476L24.5775 15.4172C25.0034 15.7318 25.4738 15.981 25.9731 16.1564C26.4262 16.3381 26.9074 16.4393 27.3951 16.4556C27.8455 16.4659 28.2907 16.3566 28.6854 16.1388C28.8619 16.0315 29.0043 15.876 29.096 15.6906C29.1877 15.5052 29.2249 15.2974 29.2033 15.0916C29.2033 14.4845 28.6327 13.9565 27.4477 13.5165C26.8673 13.2944 26.3015 13.0358 25.7537 12.7421C25.2876 12.4867 24.8855 12.1287 24.5775 11.6949C24.2306 11.1758 24.0584 10.5592 24.0859 9.935C24.0738 9.47618 24.159 9.02001 24.3361 8.59674C24.5132 8.17347 24.7779 7.79277 25.1129 7.47988C25.8487 6.81631 26.8004 6.44406 27.7901 6.43271C28.5355 6.41716 29.2788 6.5181 29.9933 6.7319C30.6149 6.94548 31.2053 7.24143 31.7488 7.61187L30.871 9.37182C30.05 8.86242 29.1141 8.56884 28.15 8.51824Z" fill="#BDBDBD"/>
<path d="M42.6944 6.50317V8.7999H39.8154V18.3828H37.4717V8.7999H34.7068V6.50317H42.6944Z" fill="#BDBDBD"/>
<path d="M46.5215 8.7999V6.50317H54.6145V8.7999H46.5215ZM46.5215 13.5957V11.299H53.9825V13.5605L46.5215 13.5957ZM48.8563 16.1653H54.8339V18.418H46.5215V16.1301L48.8563 16.1653Z" fill="#BDBDBD"/>
<path d="M70.9408 18.3825H65.4548C65.0451 18.4704 64.6273 18.5146 64.2083 18.5145C63.1474 18.5226 62.1041 18.2429 61.1888 17.7049C60.5027 17.3076 59.9015 16.7787 59.4194 16.1483C58.9373 15.518 58.5838 14.7985 58.3792 14.0312C58.1746 13.2638 58.1229 12.4635 58.2269 11.6761C58.331 10.8886 58.5888 10.1295 58.9856 9.44199C59.5149 8.51852 60.274 7.74842 61.1888 7.20686C62.1023 6.66222 63.1455 6.37476 64.2083 6.37476C65.2712 6.37476 66.3143 6.66222 67.2278 7.20686C68.1477 7.75079 68.9148 8.51983 69.4574 9.44199C69.8967 10.1792 70.1706 11.0034 70.26 11.8575C70.3495 12.7115 70.2523 13.5748 69.9752 14.3874C69.7723 14.9985 69.4762 15.5744 69.0975 16.0946H70.9847V18.3825H70.9408ZM61.0747 14.361C61.3976 14.9264 61.8601 15.3991 62.4177 15.7338C62.9824 16.081 63.6337 16.261 64.2961 16.253C64.9384 16.2547 65.5682 16.0747 66.1131 15.7338C66.6536 15.3949 67.098 14.9221 67.4034 14.361C67.7092 13.7744 67.8688 13.1222 67.8686 12.4603C67.8681 11.7963 67.7022 11.1429 67.3858 10.5596C67.0817 10.0056 66.637 9.54193 66.0967 9.21557C65.5564 8.8892 64.9398 8.71168 64.3091 8.70097C63.6784 8.69025 63.0561 8.84672 62.5051 9.15454C61.9541 9.46236 61.494 9.91062 61.1713 10.454C61.1476 10.4872 61.127 10.5225 61.1098 10.5596C60.7855 11.1397 60.619 11.7952 60.6271 12.4603C60.607 13.1223 60.7614 13.7779 61.0747 14.361Z" fill="#BDBDBD"/>
<path d="M2.27341 2.37592L78.9987 2.53432V22.4305L2.28218 22.2545L2.27341 2.37592ZM0 0V24.8328L81 25V0.175994L0 0Z" fill="#BDBDBD"/>
</svg>
