<svg width="20" height="20" viewBox="0 0 20 20" fill="none" xmlns="http://www.w3.org/2000/svg">
<path fill-rule="evenodd" clip-rule="evenodd" d="M0 5C0 4.33696 0.263392 3.70107 0.732233 3.23223C1.20107 2.76339 1.83696 2.5 2.5 2.5H17.5C18.163 2.5 18.7989 2.76339 19.2678 3.23223C19.7366 3.70107 20 4.33696 20 5V15C20 15.663 19.7366 16.2989 19.2678 16.7678C18.7989 17.2366 18.163 17.5 17.5 17.5H2.5C1.83696 17.5 1.20107 17.2366 0.732233 16.7678C0.263392 16.2989 0 15.663 0 15V5ZM2.5 3.75C2.16848 3.75 1.85054 3.8817 1.61612 4.11612C1.3817 4.35054 1.25 4.66848 1.25 5V5.27125L10 10.5212L18.75 5.27125V5C18.75 4.66848 18.6183 4.35054 18.3839 4.11612C18.1495 3.8817 17.8315 3.75 17.5 3.75H2.5ZM18.75 6.72875L12.8025 10.2975L18.75 13.8925V6.73V6.72875ZM18.7075 15.3263L11.5887 11.025L10 11.9788L8.41 11.025L1.2925 15.325C1.364 15.5905 1.52106 15.8251 1.73936 15.9923C1.95766 16.1595 2.22501 16.2501 2.5 16.25H17.5C17.7748 16.2502 18.0421 16.1598 18.2603 15.9928C18.4786 15.8258 18.6358 15.5915 18.7075 15.3263ZM1.25 13.8925L7.1975 10.2975L1.25 6.72875V13.8912V13.8925Z" fill="#455684"/>
</svg>
