<svg width="20" height="20" viewBox="0 0 20 20" fill="none" xmlns="http://www.w3.org/2000/svg">
<path fill-rule="evenodd" clip-rule="evenodd" d="M4.90692 2.18097C4.83769 2.09217 4.75038 2.01908 4.65078 1.96655C4.55118 1.91403 4.44155 1.88326 4.32916 1.87629C4.21678 1.86931 4.10419 1.8863 3.99886 1.92611C3.89352 1.96592 3.79785 2.02766 3.71817 2.10722L2.50567 3.31972C1.93942 3.88597 1.73067 4.68847 1.97942 5.39222C3.00533 8.30775 4.67452 10.9549 6.86317 13.1372C9.04554 15.3258 11.6927 16.995 14.6082 18.021C15.3119 18.2685 16.1144 18.061 16.6807 17.4947L17.8932 16.2822C17.9727 16.2025 18.0343 16.1067 18.074 16.0013C18.1137 15.896 18.1306 15.7833 18.1235 15.6709C18.1164 15.5586 18.0855 15.449 18.0329 15.3494C17.9803 15.2498 17.9071 15.1626 17.8182 15.0935L15.1157 12.991C15.0206 12.9171 14.91 12.8658 14.7922 12.8409C14.6744 12.8159 14.5525 12.8181 14.4357 12.8472L11.8707 13.4885C11.528 13.5743 11.169 13.5698 10.8286 13.4756C10.4882 13.3815 10.178 13.2007 9.92817 12.951L7.05067 10.0722C6.80096 9.82243 6.62019 9.51221 6.526 9.17179C6.4318 8.83137 6.42739 8.47236 6.51317 8.12972L7.15442 5.56472C7.18352 5.44789 7.1857 5.32598 7.1608 5.20818C7.13589 5.09039 7.08456 4.97979 7.01067 4.88472L4.90692 2.18097ZM2.83442 1.22472C3.03951 1.01977 3.28583 0.860771 3.55705 0.758271C3.82827 0.655772 4.11818 0.612117 4.40756 0.630203C4.69693 0.648289 4.97916 0.727703 5.2355 0.863175C5.49185 0.998647 5.71645 1.18708 5.89442 1.41597L7.99567 4.11847C8.38192 4.61347 8.51817 5.25972 8.36567 5.86847L7.72442 8.43472C7.69108 8.56788 7.69277 8.70741 7.72936 8.83972C7.76594 8.97203 7.83616 9.09261 7.93317 9.18972L10.8132 12.0672C10.9103 12.1642 11.0309 12.2345 11.1632 12.271C11.2955 12.3076 11.435 12.3093 11.5682 12.276L14.1332 11.6347C14.434 11.5596 14.748 11.5538 15.0514 11.6179C15.3548 11.6821 15.6397 11.8143 15.8844 12.0047L18.5869 14.106C19.5582 14.861 19.6482 16.2972 18.7782 17.166L17.5657 18.3785C16.6994 19.2447 15.4032 19.626 14.1944 19.201C11.1024 18.1127 8.29512 16.3422 5.98067 14.021C3.65897 11.7067 1.88811 8.89933 0.799424 5.80722C0.374424 4.59847 0.755674 3.30222 1.62192 2.43472L2.83442 1.22347V1.22472Z" fill="#455684"/>
</svg>
